<svg width="40" height="40" viewBox="0 0 40 40" fill="none" xmlns="http://www.w3.org/2000/svg">
    <path
        d="M23.334 6.66666H16.6673C10.3819 6.66666 7.23923 6.66666 5.28661 8.61928C3.8807 10.0252 3.48706 12.048 3.37685 15.4167H36.6245C36.5142 12.048 36.1206 10.0252 34.7147 8.61928C32.7621 6.66666 29.6194 6.66666 23.334 6.66666Z"
        fill="#312E81" />
    <path fill-rule="evenodd" clip-rule="evenodd"
        d="M23.334 33.3333H16.6673C10.3819 33.3333 7.23923 33.3333 5.28661 31.3807C3.33398 29.4281 3.33398 26.2854 3.33398 20C3.33398 19.2634 3.33398 18.57 3.33713 17.9167H36.6642C36.6673 18.57 36.6673 19.2634 36.6673 20C36.6673 26.2854 36.6673 29.4281 34.7147 31.3807C32.7621 33.3333 29.6194 33.3333 23.334 33.3333ZM26.7419 20.4167C27.4633 20.4166 28.1246 20.4165 28.6627 20.4888C29.2551 20.5685 29.8813 20.7559 30.3964 21.2709C30.9114 21.786 31.0988 22.4122 31.1785 23.0046C31.2508 23.5427 31.2507 24.2041 31.2507 24.9254V25.0746C31.2507 25.7959 31.2508 26.4573 31.1785 26.9953C31.0988 27.5878 30.9114 28.214 30.3964 28.7291C29.8813 29.2441 29.2551 29.4315 28.6627 29.5112C28.1246 29.5835 27.4633 29.5834 26.7419 29.5833L26.6673 29.5833L26.5927 29.5833C25.8714 29.5834 25.21 29.5835 24.672 29.5112C24.0795 29.4315 23.4533 29.2441 22.9383 28.7291C22.4232 28.214 22.2358 27.5878 22.1562 26.9953C22.0838 26.4573 22.0839 25.7959 22.084 25.0746L22.084 25L22.084 24.9254C22.0839 24.2041 22.0838 23.5427 22.1562 23.0046C22.2358 22.4122 22.4232 21.786 22.9383 21.2709C23.4533 20.7559 24.0795 20.5685 24.672 20.4888C25.21 20.4165 25.8714 20.4166 26.5927 20.4167H26.7419ZM8.75065 22.5C8.75065 21.8096 9.3103 21.25 10.0007 21.25H13.334C14.0243 21.25 14.584 21.8096 14.584 22.5C14.584 23.1903 14.0243 23.75 13.334 23.75H10.0007C9.3103 23.75 8.75065 23.1903 8.75065 22.5ZM8.75065 27.5C8.75065 26.8096 9.3103 26.25 10.0007 26.25H16.6673C17.3577 26.25 17.9173 26.8096 17.9173 27.5C17.9173 28.1903 17.3577 28.75 16.6673 28.75H10.0007C9.3103 28.75 8.75065 28.1903 8.75065 27.5Z"
        fill="#312E81" />
    <path
        d="M24.7061 23.0386L24.7101 23.0364C24.7133 23.0347 24.7188 23.032 24.7273 23.0286C24.7636 23.0137 24.8442 22.9882 25.0051 22.9665C25.3563 22.9193 25.8463 22.9167 26.6673 22.9167C27.4883 22.9167 27.9783 22.9193 28.3295 22.9665C28.4905 22.9882 28.5711 23.0137 28.6074 23.0286C28.6158 23.032 28.6213 23.0347 28.6245 23.0364L28.6286 23.0387L28.6309 23.0428C28.6326 23.046 28.6353 23.0515 28.6387 23.0599C28.6537 23.0962 28.6791 23.1768 28.7008 23.3378C28.748 23.689 28.7507 24.179 28.7507 25C28.7507 25.821 28.748 26.311 28.7008 26.6622C28.6791 26.8231 28.6537 26.9037 28.6387 26.94C28.6353 26.9485 28.6326 26.954 28.6309 26.9572L28.6286 26.9613L28.6245 26.9636C28.6213 26.9652 28.6158 26.9679 28.6074 26.9714C28.5711 26.9863 28.4905 27.0118 28.3295 27.0335C27.9783 27.0807 27.4883 27.0833 26.6673 27.0833C25.8463 27.0833 25.3563 27.0807 25.0051 27.0335C24.8442 27.0118 24.7636 26.9863 24.7273 26.9714C24.7188 26.9679 24.7133 26.9652 24.7101 26.9636L24.706 26.9613L24.7038 26.9572C24.7021 26.954 24.6994 26.9485 24.6959 26.94C24.681 26.9037 24.6555 26.8231 24.6339 26.6622C24.5866 26.311 24.584 25.821 24.584 25C24.584 24.179 24.5866 23.689 24.6339 23.3378C24.6555 23.1768 24.681 23.0962 24.6959 23.0599C24.6994 23.0515 24.7021 23.046 24.7038 23.0428L24.7061 23.0386Z"
        fill="#312E81" />
</svg>