<svg width="70" height="70" viewBox="0 0 70 70" fill="none" xmlns="http://www.w3.org/2000/svg">
<path d="M22.6048 7.29167C22.6048 6.08355 21.6254 5.10417 20.4173 5.10417C19.2092 5.10417 18.2298 6.08355 18.2298 7.29167V11.8978C14.0318 12.234 11.2758 13.059 9.25107 15.0838C7.22633 17.1085 6.40131 19.8645 6.06515 24.0625H63.9361C63.6 19.8645 62.775 17.1085 60.7502 15.0838C58.7255 13.059 55.9695 12.234 51.7715 11.8978V7.29167C51.7715 6.08355 50.7921 5.10417 49.584 5.10417C48.3759 5.10417 47.3965 6.08355 47.3965 7.29167V11.7043C45.4561 11.6667 43.2812 11.6667 40.834 11.6667H29.1673C26.7201 11.6667 24.5452 11.6667 22.6048 11.7043V7.29167Z" fill="#DC2626"/>
<path fill-rule="evenodd" clip-rule="evenodd" d="M5.83398 35C5.83398 32.5528 5.83398 30.3779 5.87162 28.4375H64.1297C64.1673 30.3779 64.1673 32.5528 64.1673 35V40.8333C64.1673 51.8328 64.1673 57.3325 60.7502 60.7496C57.3331 64.1667 51.8334 64.1667 40.834 64.1667H29.1673C18.1679 64.1667 12.6682 64.1667 9.25107 60.7496C5.83398 57.3325 5.83398 51.8328 5.83398 40.8333V35ZM49.584 40.8333C51.1948 40.8333 52.5006 39.5275 52.5006 37.9167C52.5006 36.3058 51.1948 35 49.584 35C47.9732 35 46.6673 36.3058 46.6673 37.9167C46.6673 39.5275 47.9732 40.8333 49.584 40.8333ZM49.584 52.5C51.1948 52.5 52.5006 51.1942 52.5006 49.5833C52.5006 47.9725 51.1948 46.6667 49.584 46.6667C47.9732 46.6667 46.6673 47.9725 46.6673 49.5833C46.6673 51.1942 47.9732 52.5 49.584 52.5ZM37.9173 37.9167C37.9173 39.5275 36.6115 40.8333 35.0006 40.8333C33.3898 40.8333 32.084 39.5275 32.084 37.9167C32.084 36.3058 33.3898 35 35.0006 35C36.6115 35 37.9173 36.3058 37.9173 37.9167ZM37.9173 49.5833C37.9173 51.1942 36.6115 52.5 35.0006 52.5C33.3898 52.5 32.084 51.1942 32.084 49.5833C32.084 47.9725 33.3898 46.6667 35.0006 46.6667C36.6115 46.6667 37.9173 47.9725 37.9173 49.5833ZM20.4173 40.8333C22.0281 40.8333 23.334 39.5275 23.334 37.9167C23.334 36.3058 22.0281 35 20.4173 35C18.8065 35 17.5007 36.3058 17.5007 37.9167C17.5007 39.5275 18.8065 40.8333 20.4173 40.8333ZM20.4173 52.5C22.0281 52.5 23.334 51.1942 23.334 49.5833C23.334 47.9725 22.0281 46.6667 20.4173 46.6667C18.8065 46.6667 17.5007 47.9725 17.5007 49.5833C17.5007 51.1942 18.8065 52.5 20.4173 52.5Z" fill="#DC2626"/>
</svg>
