<svg width="45" height="45" viewBox="0 0 45 45" fill="none" xmlns="http://www.w3.org/2000/svg">
    <g clip-path="url(#clip0_3682_11870)">
        <path fill-rule="evenodd" clip-rule="evenodd"
            d="M27.6621 5H32.0252C34.2656 4.99998 36.0473 4.99997 37.4762 5.13583C38.9413 5.27513 40.18 5.56713 41.2835 6.24336C42.4188 6.93908 43.3733 7.89362 44.0691 9.02893C44.7453 10.1324 45.0373 11.3712 45.1766 12.8363C45.3124 14.2651 45.3124 16.0468 45.3124 18.2872V19.8167C45.3124 21.4116 45.3124 22.68 45.2422 23.7086C45.1704 24.7608 45.0205 25.6642 44.6701 26.5102C43.8138 28.5777 42.1712 30.2202 40.1038 31.0766C39.3929 31.371 38.6351 31.5256 37.7766 31.6098C37.7666 31.871 37.754 32.1194 37.7379 32.3557C37.6616 33.4732 37.5028 34.4256 37.1346 35.3146C36.2306 37.4969 34.4968 39.2307 32.3145 40.1347C31.1954 40.5982 29.961 40.734 28.4087 40.7836C27.5735 40.8104 27.0396 40.8288 26.634 40.8782C26.2506 40.925 26.1067 40.9875 26.0289 41.0335C25.9425 41.0846 25.8232 41.1784 25.6151 41.4649C25.3904 41.7743 25.1359 42.2014 24.7328 42.8824L24.2464 43.7042C22.9771 45.8486 19.8353 45.8486 18.5661 43.7042L18.0796 42.8824C17.6765 42.2014 17.4221 41.7743 17.1973 41.4649C16.9893 41.1784 16.8699 41.0846 16.7835 41.0335C16.7057 40.9875 16.5618 40.925 16.1784 40.8782C15.7728 40.8288 15.239 40.8104 14.4037 40.7836C12.8515 40.734 11.6171 40.5982 10.498 40.1347C8.31569 39.2307 6.58188 37.4969 5.67795 35.3146C5.30969 34.4256 5.15087 33.4732 5.07463 32.3557C4.99999 31.2618 4.99999 29.9114 5 28.2076V26.5837C4.99999 24.1902 4.99997 22.2935 5.14446 20.7738C5.2924 19.2179 5.60167 17.9126 6.31242 16.7528C7.04679 15.5544 8.05436 14.5468 9.25275 13.8124C10.4126 13.1017 11.7179 12.7924 13.2738 12.6445C13.6693 12.6069 14.0904 12.579 14.5391 12.5585C14.6891 11.2088 14.9883 10.057 15.6182 9.02893C16.314 7.89362 17.2685 6.93908 18.4038 6.24336C19.5073 5.56713 20.746 5.27513 22.2111 5.13583C23.64 4.99997 25.4217 4.99998 27.6621 5ZM17.3812 12.5022C17.9189 12.5 18.4858 12.5 19.0837 12.5H23.7288C26.1224 12.5 28.0191 12.5 29.5387 12.6445C31.0946 12.7924 32.3999 13.1017 33.5598 13.8124C34.7581 14.5468 35.7657 15.5544 36.5001 16.7528C37.2108 17.9126 37.5201 19.2179 37.668 20.7738C37.8125 22.2935 37.8125 24.1901 37.8125 26.5837V28.2077C37.8125 28.4014 37.8125 28.5905 37.8124 28.7753C38.3288 28.7083 38.7055 28.6116 39.0275 28.4782C40.4058 27.9073 41.5008 26.8122 42.0717 25.4339C42.2565 24.9878 42.3742 24.4261 42.4363 23.5172C42.4991 22.5956 42.4999 21.423 42.4999 19.7657V18.3594C42.4999 16.0306 42.4984 14.3827 42.3767 13.1025C42.257 11.8433 42.0309 11.0858 41.671 10.4985C41.2072 9.74158 40.5708 9.10522 39.814 8.6414C39.2266 8.2815 38.4692 8.05543 37.2099 7.9357C35.9298 7.81398 34.2819 7.8125 31.953 7.8125H27.7343C25.4054 7.8125 23.7575 7.81398 22.4774 7.9357C21.2181 8.05543 20.4607 8.2815 19.8733 8.6414C19.1165 9.10522 18.4801 9.74158 18.0163 10.4985C17.7152 10.9897 17.5105 11.5941 17.3812 12.5022ZM13.54 15.4443C12.19 15.5727 11.3659 15.816 10.7223 16.2105C9.90233 16.7129 9.21294 17.4023 8.71048 18.2223C8.31603 18.866 8.0727 19.69 7.94434 21.04C7.81398 22.411 7.8125 24.174 7.8125 26.6563V28.1563C7.8125 29.9228 7.81326 31.1773 7.8806 32.1643C7.94708 33.1386 8.07371 33.7491 8.27636 34.2383C8.89484 35.7315 10.0811 36.9178 11.5743 37.5362C12.2009 37.7958 13.0082 37.9251 14.4937 37.9726L14.552 37.9744C15.3121 37.9987 15.9733 38.0198 16.519 38.0864C17.1007 38.1574 17.6723 38.2915 18.2154 38.6128C18.7499 38.9289 19.1359 39.3481 19.4729 39.812C19.7846 40.2412 20.1058 40.7839 20.4699 41.3991L20.9864 42.2716C21.0715 42.4155 21.2201 42.5 21.4062 42.5C21.5923 42.5 21.7409 42.4155 21.8261 42.2716L22.3425 41.3991C22.7066 40.7839 23.0278 40.2412 23.3395 39.812C23.6765 39.3481 24.0626 38.9289 24.597 38.6128C25.1402 38.2915 25.7117 38.1574 26.2935 38.0864C26.8392 38.0198 27.5003 37.9987 28.2605 37.9744L28.3188 37.9726C29.8043 37.9251 30.6116 37.7958 31.2382 37.5362C32.7314 36.9178 33.9177 35.7315 34.5361 34.2383C34.7388 33.7491 34.8654 33.1386 34.9319 32.1643C34.9992 31.1773 35 29.9228 35 28.1563V26.6563C35 24.174 34.9985 22.411 34.8682 21.04C34.7398 19.69 34.4965 18.866 34.102 18.2223C33.5996 17.4023 32.9102 16.7129 32.0902 16.2105C31.4466 15.816 30.6225 15.5727 29.2725 15.4443C27.9015 15.314 26.1386 15.3125 23.6562 15.3125H19.1563C16.6739 15.3125 14.911 15.314 13.54 15.4443Z"
            fill="#1C274C" />
        <path
            d="M16.7188 27.0313C16.7188 28.0668 15.8793 28.9063 14.8438 28.9063C13.8082 28.9063 12.9688 28.0668 12.9688 27.0313C12.9688 25.9957 13.8082 25.1563 14.8438 25.1563C15.8793 25.1563 16.7188 25.9957 16.7188 27.0313Z"
            fill="#1C274C" />
        <path
            d="M23.2813 27.0313C23.2813 28.0668 22.4418 28.9063 21.4063 28.9063C20.3707 28.9063 19.5313 28.0668 19.5313 27.0313C19.5313 25.9957 20.3707 25.1563 21.4063 25.1563C22.4418 25.1563 23.2813 25.9957 23.2813 27.0313Z"
            fill="#1C274C" />
        <path
            d="M29.8438 27.0313C29.8438 28.0668 29.0043 28.9063 27.9688 28.9063C26.9332 28.9063 26.0938 28.0668 26.0938 27.0313C26.0938 25.9957 26.9332 25.1562 27.9688 25.1562C29.0043 25.1562 29.8438 25.9957 29.8438 27.0313Z"
            fill="#1C274C" />
    </g>
    <defs>
        <clipPath id="clip0_3682_11870">
            <rect width="45" height="45" fill="white" />
        </clipPath>
    </defs>
</svg>