<svg width="40" height="40" viewBox="0 0 40 40" fill="none" xmlns="http://www.w3.org/2000/svg">
    <path fill-rule="evenodd" clip-rule="evenodd"
        d="M27.7193 7.94754C27.317 7.91748 26.7982 7.91667 26.0152 7.91667H23.9689C23.2785 7.91667 22.7189 7.35702 22.7189 6.66667C22.7189 5.97631 23.2785 5.41667 23.9689 5.41667L26.0602 5.41667C26.7863 5.41665 27.3991 5.41664 27.9057 5.4545C28.438 5.49428 28.9423 5.58042 29.4348 5.79876C30.195 6.13579 30.8454 6.67944 31.3093 7.36886C31.6107 7.81671 31.781 8.29833 31.9089 8.81351C32.0304 9.30264 32.1313 9.90138 32.2505 10.6081L33.9317 20.5764C33.9928 20.9392 33.8911 21.3104 33.6536 21.5914C33.4161 21.8723 33.0669 22.0343 32.6991 22.0343C28.5539 22.0343 25.2189 25.3512 25.2189 29.4118C25.2189 30.1021 24.6593 30.6618 23.9689 30.6618H12.3674C11.8021 32.9218 9.73905 34.5833 7.30224 34.5833C4.43426 34.5833 2.08398 32.2818 2.08398 29.4118C2.08398 26.5417 4.43426 24.2402 7.30224 24.2402C9.73905 24.2402 11.8021 25.9017 12.3674 28.1618H22.7979C23.3585 23.7631 26.8383 20.2789 31.2383 19.6395L29.7929 11.0689C29.6641 10.3051 29.5783 9.80134 29.4826 9.41599C29.3908 9.04632 29.3101 8.87584 29.2352 8.76456C29.0358 8.46827 28.7543 8.23174 28.4216 8.08424C28.2942 8.02775 28.1064 7.97647 27.7193 7.94754ZM27.4808 29.4118C27.4808 26.5417 29.8311 24.2402 32.6991 24.2402C35.567 24.2402 37.9173 26.5417 37.9173 29.4118C37.9173 32.2818 35.567 34.5833 32.6991 34.5833C29.8311 34.5833 27.4808 32.2818 27.4808 29.4118Z"
        fill="#1C274C" />
</svg>