<svg width="100" height="100" viewBox="0 0 100 100" fill="none" xmlns="http://www.w3.org/2000/svg">
    <path
        d="M41.6673 74.3056C41.6673 83.8938 34.2054 91.6667 25.0007 91.6667C15.7959 91.6667 8.33398 83.8938 8.33398 74.3056C8.33398 68.3063 14.8587 60.2992 19.7433 55.1453C22.6349 52.0943 27.3664 52.0943 30.258 55.1453C35.1426 60.2992 41.6673 68.3063 41.6673 74.3056Z"
        fill="#0098DF" />
    <path opacity="0.7"
        d="M91.6673 74.3049C91.6673 83.8932 84.2054 91.6661 75.0007 91.6661C65.7959 91.6661 58.334 83.8932 58.334 74.3049C58.334 68.3057 64.8587 60.2985 69.7433 55.1447C72.6349 52.0937 77.3664 52.0937 80.258 55.1447C85.1426 60.2985 91.6673 68.3057 91.6673 74.3049Z"
        fill="#0098DF" />
    <path opacity="0.4"
        d="M66.6673 32.6383C66.6673 42.2266 59.2054 49.9994 50.0007 49.9994C40.7959 49.9994 33.334 42.2266 33.334 32.6383C33.334 26.639 39.8587 18.6319 44.7433 13.478C47.6349 10.427 52.3664 10.427 55.258 13.478C60.1426 18.6319 66.6673 26.639 66.6673 32.6383Z"
        fill="#0098DF" />
</svg>