<svg width="70" height="70" viewBox="0 0 70 70" fill="none" xmlns="http://www.w3.org/2000/svg">
<path d="M24.3594 59.0387C26.8126 62.1571 30.6664 64.1667 35 64.1667C39.3337 64.1667 43.1875 62.1571 45.6406 59.0387C38.5771 59.9958 31.4229 59.9958 24.3594 59.0387Z" fill="#EAB308"/>
<path d="M54.685 26.25V28.3036C54.685 30.7682 55.3883 33.1776 56.7064 35.2282L59.9365 40.2534C62.8868 44.8433 60.6344 51.0822 55.5031 52.5337C42.0795 56.3308 27.9205 56.3308 14.4969 52.5337C9.36555 51.0822 7.11324 44.8433 10.0635 40.2534L13.2936 35.2282C14.6117 33.1776 15.315 30.7682 15.315 28.3036V26.25C15.315 14.9742 24.1283 5.83334 35 5.83334C45.8717 5.83334 54.685 14.9742 54.685 26.25Z" fill="#EAB308"/>
</svg>
