<svg width="83" height="75" viewBox="0 0 83 75" fill="none" xmlns="http://www.w3.org/2000/svg">
    <path fill-rule="evenodd" clip-rule="evenodd"
        d="M41.2815 8.59375C28.457 8.59375 18.0606 18.0377 18.0606 29.6875C18.0606 35.9329 21.0452 41.5419 25.7977 45.4075L25.8127 45.4197C27.7277 46.9774 29.1824 48.1606 30.2224 49.0268C31.2016 49.8422 31.9772 50.5086 32.3837 50.9643L32.4279 51.0138C33.189 51.8669 33.8524 52.6104 34.2898 53.4996C34.7272 54.3887 34.8944 55.3336 35.0864 56.4178L35.0975 56.4807C35.1959 57.0365 35.2354 57.719 35.2511 58.5938H47.3119C47.3276 57.719 47.3671 57.0365 47.4655 56.4807L47.4766 56.4178C47.6685 55.3336 47.8358 54.3887 48.2732 53.4996C48.7106 52.6104 49.3739 51.8669 50.1351 51.0138L50.1793 50.9643C50.5857 50.5086 51.3614 49.8422 52.3406 49.0268C53.3806 48.1606 54.8354 46.9773 56.7505 45.4196L56.7653 45.4075C61.5178 41.5419 64.5023 35.9329 64.5023 29.6875C64.5023 18.0377 54.106 8.59375 41.2815 8.59375ZM47.2796 63.2812H35.2834C35.2946 63.6069 35.3116 63.8915 35.3372 64.1477C35.4074 64.8512 35.5258 65.1067 35.6069 65.2344C35.8334 65.5907 36.1591 65.8865 36.5513 66.0922C36.6919 66.166 36.9731 66.2735 37.7476 66.3373C38.5576 66.404 39.6264 66.4062 41.2815 66.4062C42.9366 66.4062 44.0054 66.404 44.8154 66.3373C45.5899 66.2735 45.8711 66.166 46.0117 66.0922C46.4039 65.8865 46.7296 65.5907 46.956 65.2344C47.0372 65.1067 47.1556 64.8512 47.2258 64.1477C47.2514 63.8915 47.2683 63.6069 47.2796 63.2812ZM12.9005 29.6875C12.9005 15.4489 25.6071 3.90625 41.2815 3.90625C56.9559 3.90625 69.6625 15.4489 69.6625 29.6875C69.6625 37.3212 66.007 44.1824 60.2075 48.8997C58.2746 50.472 56.8425 51.6368 55.8277 52.482C55.3203 52.9046 54.9323 53.2347 54.646 53.4881C54.5032 53.6144 54.3941 53.7143 54.3127 53.7918C54.2725 53.8301 54.2422 53.8599 54.2202 53.8822C54.1977 53.9051 54.1883 53.9155 54.1884 53.9154C53.2934 54.9187 53.0997 55.1775 52.9844 55.412C52.869 55.6466 52.786 55.9503 52.5602 57.2253C52.471 57.7286 52.4619 58.5908 52.4619 60.9375V61.0381C52.462 62.4125 52.462 63.598 52.365 64.5708C52.2623 65.5995 52.0351 66.6181 51.4249 67.5781C50.7456 68.647 49.7684 69.5346 48.5918 70.1517C47.5349 70.706 46.4136 70.9125 45.2812 71.0057C44.2103 71.0938 42.9053 71.0938 41.3924 71.0938H41.1706C39.6577 71.0938 38.3527 71.0938 37.2818 71.0057C36.1494 70.9125 35.0281 70.706 33.9712 70.1517C32.7946 69.5346 31.8174 68.647 31.1381 67.5781C30.5279 66.6181 30.3007 65.5995 30.198 64.5708C30.101 63.598 30.101 62.4125 30.1011 61.0382L30.1011 60.9375C30.1011 58.5908 30.092 57.7286 30.0028 57.2253C29.777 55.9503 29.694 55.6466 29.5786 55.412C29.4632 55.1775 29.2695 54.9187 28.3745 53.9154C28.3739 53.9146 28.3643 53.9041 28.3428 53.8822C28.3208 53.8599 28.2905 53.8301 28.2503 53.7918C28.1689 53.7143 28.0598 53.6144 27.917 53.4881C27.6307 53.2347 27.2427 52.9046 26.7353 52.482C25.7204 51.6368 24.2884 50.472 22.3555 48.8997C16.556 44.1824 12.9005 37.3212 12.9005 29.6875ZM34.0298 41.7212C35.2632 41.0731 36.8415 41.456 37.555 42.5764C38.3025 43.7501 39.6931 44.5312 41.2815 44.5312C42.8699 44.5312 44.2605 43.7501 45.0079 42.5764C45.7215 41.456 47.2998 41.0731 48.5332 41.7212C49.7667 42.3694 50.1881 43.8031 49.4746 44.9236C48.2593 46.832 46.2539 48.2801 43.8616 48.8951V53.125C43.8616 54.4194 42.7064 55.4688 41.2815 55.4688C39.8565 55.4688 38.7014 54.4194 38.7014 53.125V48.8951C36.309 48.2801 34.3036 46.832 33.0884 44.9236C32.3748 43.8031 32.7963 42.3694 34.0298 41.7212Z"
        fill="#1C274C" />
</svg>