<svg width="50" height="50" viewBox="0 0 50 50" fill="none" xmlns="http://www.w3.org/2000/svg">
<path d="M24.9993 20.8333C29.6017 20.8333 33.3327 17.1024 33.3327 12.5C33.3327 7.89763 29.6017 4.16667 24.9993 4.16667C20.397 4.16667 16.666 7.89763 16.666 12.5C16.666 17.1024 20.397 20.8333 24.9993 20.8333Z" fill="black"/>
<path d="M5.68223 12.1209C5.47294 11.2837 4.6246 10.7747 3.78742 10.984C2.95024 11.1933 2.44124 12.0416 2.65054 12.8788L3.4463 16.0619C4.91455 21.9349 9.36609 26.5615 15.1039 28.2889L15.1039 37.6082C15.1038 39.48 15.1038 41.0409 15.2704 42.28C15.4462 43.5879 15.833 44.7688 16.7819 45.7177C17.7308 46.6666 18.9116 47.0534 20.2196 47.2292C21.4587 47.3958 23.0196 47.3958 24.8914 47.3957H25.108C26.9799 47.3958 28.5408 47.3958 29.7799 47.2292C31.0878 47.0534 32.2686 46.6666 33.2175 45.7177C34.1664 44.7688 34.5532 43.5879 34.7291 42.28C34.8957 41.0409 34.8956 39.4801 34.8956 37.6083L34.8955 28.8728C36.9396 29.4822 38.5009 31.258 38.7615 33.4729L40.1146 44.9741C40.2154 45.8311 40.9919 46.4442 41.8489 46.3433C42.706 46.2425 43.319 45.466 43.2182 44.609L41.8651 33.1078C41.3561 28.7813 37.6894 25.5207 33.333 25.5207H16.8425C11.752 24.3258 7.74845 20.3858 6.478 15.304L5.68223 12.1209Z" fill="black"/>
</svg>
