<svg width="28" height="28" viewBox="0 0 28 28" fill="none" xmlns="http://www.w3.org/2000/svg">
<path d="M6.61477 11.5668L10.1873 6.73322C12.4965 3.60883 13.6512 2.04663 14.7284 2.37676C15.8057 2.70688 15.8057 4.62292 15.8057 8.45498V8.8163C15.8057 10.1984 15.8057 10.8895 16.2473 11.323L16.2707 11.3454C16.7218 11.7698 17.4411 11.7698 18.8796 11.7698C21.4683 11.7698 22.7626 11.7698 23.2001 12.5549C23.2073 12.5679 23.2144 12.581 23.2212 12.5942C23.6341 13.3914 22.8847 14.4054 21.3858 16.4333L17.8133 21.2668C15.504 24.3912 14.3494 25.9534 13.2721 25.6233C12.1949 25.2931 12.1949 23.3771 12.195 19.545L12.195 19.1838C12.195 17.8016 12.195 17.1106 11.7534 16.6771L11.73 16.6546C11.2788 16.2303 10.5596 16.2303 9.12104 16.2303C6.53235 16.2303 5.23801 16.2303 4.80057 15.4452C4.79333 15.4322 4.78629 15.4191 4.77945 15.4059C4.36651 14.6086 5.11593 13.5947 6.61477 11.5668Z" fill="#FACC15"/>
</svg>
