<svg width="75" height="75" viewBox="0 0 75 75" fill="none" xmlns="http://www.w3.org/2000/svg">
    <path
        d="M65.625 52.5906V34.8821C65.625 31.6209 65.625 29.9903 64.7402 28.7627C64.0255 27.7711 62.8786 27.244 60.8334 26.5344C60.4151 31.5538 58.7528 36.6798 56.1422 41.1661C53.1026 46.3899 48.5886 51.0604 42.8031 53.5843C39.4313 55.0552 35.5687 55.0552 32.1969 53.5843C26.4114 51.0604 21.8974 46.3899 18.8578 41.1661C16.8777 37.7632 15.4431 33.9924 14.6832 30.1791C13.4877 30.0031 12.5703 30.0934 11.7786 30.5351C11.4628 30.7113 11.1684 30.9235 10.9013 31.1674C9.375 32.5615 9.375 35.1535 9.375 40.3375V55.7429C9.375 59.0041 9.375 60.6347 10.2598 61.8623C11.1446 63.0899 12.6915 63.6055 15.7854 64.6368L16.984 65.0363L16.984 65.0364C21.9121 66.679 24.3761 67.5004 26.8965 67.5052C27.6556 67.5066 28.4138 67.4527 29.1651 67.3439C31.6595 66.9828 34.0028 65.8111 38.6894 63.4678C42.281 61.672 44.0768 60.7741 45.9844 60.3575C46.6539 60.2113 47.3323 60.1093 48.0151 60.0521C49.9609 59.8893 51.9241 60.2165 55.8504 60.8709L55.8505 60.8709C59.8296 61.5341 61.8192 61.8657 63.2718 61.0315C63.7652 60.7482 64.2028 60.3775 64.5634 59.9374C65.625 58.6417 65.625 56.6247 65.625 52.5906Z"
        fill="#1C274C" />
    <path fill-rule="evenodd" clip-rule="evenodd"
        d="M37.5 6.25C27.1447 6.25 18.75 14.2254 18.75 24.0635C18.75 33.8245 24.7344 45.2146 34.0713 49.2879C36.2478 50.2374 38.7522 50.2374 40.9287 49.2879C50.2656 45.2146 56.25 33.8245 56.25 24.0635C56.25 14.2254 47.8553 6.25 37.5 6.25ZM37.5 31.25C40.9518 31.25 43.75 28.4518 43.75 25C43.75 21.5482 40.9518 18.75 37.5 18.75C34.0482 18.75 31.25 21.5482 31.25 25C31.25 28.4518 34.0482 31.25 37.5 31.25Z"
        fill="#1C274C" />
</svg>