<svg width="49" height="52" viewBox="0 0 49 52" fill="none" xmlns="http://www.w3.org/2000/svg">
<path fill-rule="evenodd" clip-rule="evenodd" d="M18.6103 42.25C18.6103 41.3525 19.2859 40.625 20.1192 40.625H28.1668C29.0002 40.625 29.6758 41.3525 29.6758 42.25C29.6758 43.1475 29.0002 43.875 28.1668 43.875H20.1192C19.2859 43.875 18.6103 43.1475 18.6103 42.25ZM19.9516 47.6667C19.9516 46.7692 20.6271 46.0417 21.4605 46.0417H26.8256C27.6589 46.0417 28.3345 46.7692 28.3345 47.6667C28.3345 48.5641 27.6589 49.2917 26.8256 49.2917H21.4605C20.6271 49.2917 19.9516 48.5641 19.9516 47.6667Z" fill="#1C274C"/>
<path fill-rule="evenodd" clip-rule="evenodd" d="M8.55078 17.8058C8.55078 9.34553 15.7009 2.70833 24.143 2.70833C32.5852 2.70833 39.7353 9.34553 39.7353 17.8058L39.7353 17.8129C39.716 22.5933 37.8067 27.3557 34.4149 30.82L34.4107 30.8243L32.1895 33.0758C31.8693 33.4004 31.6877 33.853 31.6877 34.3265C31.6877 36.6085 29.9699 38.4583 27.851 38.4583H20.4351C18.3161 38.4583 16.5984 36.6085 16.5984 34.3265C16.5984 33.853 16.4168 33.4004 16.0966 33.0759L13.8754 30.8243L13.8712 30.82C10.4794 27.3557 8.57011 22.5933 8.5508 17.8129L8.55078 17.8058ZM11.5686 17.8023C11.5852 21.6711 13.1384 25.5911 15.9458 28.4598C15.9465 28.4605 15.9473 28.4612 15.948 28.462L18.165 30.7092C19.0911 31.648 19.6163 32.9569 19.6163 34.3265C19.6163 34.8135 19.9829 35.2083 20.4351 35.2083H27.851C28.3032 35.2083 28.6698 34.8135 28.6698 34.3265C28.6698 32.9569 29.1949 31.648 30.1211 30.7093C30.1211 30.7093 30.1211 30.7093 30.1211 30.7093L32.3381 28.462C32.3388 28.4613 32.3395 28.4606 32.3401 28.4599C35.1477 25.5911 36.7009 21.671 36.7174 17.8021C36.7153 11.4822 31.2555 5.95833 24.143 5.95833C17.0305 5.95833 11.5707 11.4823 11.5686 17.8023Z" fill="#1C274C"/>
</svg>
