<svg width="59" height="52" viewBox="0 0 59 52" fill="none" xmlns="http://www.w3.org/2000/svg">
<path fill-rule="evenodd" clip-rule="evenodd" d="M38.1515 5.24801C37.6141 4.77185 36.9381 4.79279 36.5672 4.83638C36.2167 4.87757 35.7967 4.98346 35.3967 5.08433L35.0886 5.16192L34.8381 5.02187C34.4993 4.83222 34.1352 4.62849 33.8114 4.50378C33.4462 4.36312 32.8297 4.20309 32.182 4.50473C31.5466 4.80062 31.3375 5.33031 31.251 5.66737C31.1723 5.97406 31.1387 6.3576 31.1067 6.72232L31.0824 6.9986L31.0803 7.02162L30.8075 7.22062C30.4816 7.45824 30.1433 7.70483 29.9034 7.93722C29.6493 8.1834 29.2575 8.64592 29.357 9.28995C29.4599 9.95597 30.0042 10.3013 30.3444 10.4684C30.6524 10.6198 31.0578 10.7523 31.4356 10.8758L31.7018 10.963L31.8001 11.1988C31.9395 11.5336 32.0891 11.8928 32.2599 12.1657C32.4485 12.4671 32.8383 12.9494 33.5899 13.0406C34.3167 13.1288 34.8387 12.7816 35.1165 12.5564C35.3788 12.3439 35.6571 12.0441 35.9253 11.7553L36.1499 11.5136L36.1759 11.5118L36.4876 11.4902C36.8993 11.4619 37.3321 11.4321 37.6782 11.3624C38.0586 11.2857 38.6564 11.1005 38.9904 10.5375C39.3308 9.96357 39.1502 9.41731 38.9914 9.09369C38.8507 8.80678 38.6208 8.48423 38.4068 8.184L38.2487 7.96201L38.3362 7.689C38.4501 7.33453 38.5696 6.96243 38.6161 6.65186C38.6653 6.32322 38.6889 5.72417 38.1515 5.24801Z" fill="#1C274C"/>
<path d="M24.9096 4.6819C25.7737 5.15 26.046 6.15021 25.5177 6.91592C25.1344 7.47157 25.2305 8.18757 25.7502 8.64807L25.9895 8.86014C27.4289 10.1356 27.9597 12.0092 27.3707 13.7358C27.0776 14.5949 26.0541 15.0808 25.0846 14.8211C24.115 14.5614 23.5667 13.6545 23.8597 12.7954C24.0575 12.2157 23.8793 11.5865 23.3959 11.1582L23.1566 10.9462C21.4388 9.42404 21.1212 7.05738 22.3883 5.22077C22.9166 4.45505 24.0454 4.21379 24.9096 4.6819Z" fill="#1C274C"/>
<path d="M52.3511 29.426C51.4667 29.0833 50.4381 29.2272 49.7158 29.7947C47.737 31.3495 44.8573 31.6079 42.5669 30.4362L42.0464 30.17C41.1693 29.7212 40.8688 28.7274 41.3752 27.9502C41.8816 27.1729 43.0032 26.9066 43.8804 27.3554L44.4008 27.6216C45.324 28.0939 46.4847 27.9898 47.2823 27.3631C49.0742 25.9551 51.6261 25.598 53.8205 26.4482L54.5333 26.7243C55.4613 27.0838 55.8847 28.0419 55.4789 28.8642C55.0731 29.6865 53.9919 30.0616 53.0639 29.7021L52.3511 29.426Z" fill="#1C274C"/>
<path d="M31.5841 15.5542C31.0719 15.1003 30.2414 15.1003 29.7292 15.5542C29.217 16.008 29.217 16.7439 29.7292 17.1977C30.2414 17.6516 31.0719 17.6516 31.5841 17.1977C32.0963 16.7439 32.0963 16.008 31.5841 15.5542Z" fill="#1C274C"/>
<path fill-rule="evenodd" clip-rule="evenodd" d="M55.0778 19.2056C55.7035 20.4058 55.2812 21.7683 54.139 22.7804C53.4766 23.3673 52.589 23.6332 51.7985 23.7577C50.9899 23.8851 50.1351 23.8876 49.3862 23.8451C48.6301 23.8023 47.9367 23.7107 47.4353 23.6309C47.1834 23.5908 46.9767 23.5531 46.831 23.525C46.7581 23.511 46.7002 23.4993 46.6594 23.4908L46.6111 23.4807L46.597 23.4777L46.5925 23.4767L46.5897 23.4761C46.1494 23.3795 45.8056 23.0749 45.6967 22.6847L46.8835 22.4245C45.6967 22.6847 45.696 22.6823 45.696 22.6823L45.6949 22.6783L45.6915 22.6658L45.68 22.623C45.6705 22.5868 45.6573 22.5356 45.6414 22.471C45.6098 22.3419 45.5672 22.1587 45.522 21.9355C45.4319 21.4913 45.3286 20.8768 45.2802 20.2068C45.2322 19.5433 45.235 18.7859 45.3788 18.0694C45.5194 17.369 45.8194 16.5824 46.4818 15.9955C47.624 14.9834 49.1617 14.6093 50.5162 15.1637C51.5436 15.5842 52.2118 16.4352 52.4635 17.4801C53.6428 17.7032 54.6033 18.2953 55.0778 19.2056Z" fill="#1C274C"/>
<g opacity="0.5">
<path d="M43.2561 10.2777C44.2493 10.4537 44.8934 11.3098 44.6947 12.1899L44.3426 13.7497C43.8581 15.8965 42.1125 17.6486 39.7685 18.3409C38.6732 18.6644 37.8576 19.4831 37.6311 20.4863L37.2791 22.0461C37.0804 22.9262 36.1143 23.4969 35.1211 23.3209C34.1279 23.1449 33.4838 22.2888 33.6824 21.4087L34.0345 19.8489C34.5191 17.7021 36.2647 15.95 38.6086 15.2577C39.7039 14.9342 40.5196 14.1155 40.746 13.1123L41.0981 11.5525C41.2967 10.6725 42.2629 10.1017 43.2561 10.2777Z" fill="#1C274C"/>
<path d="M16.9418 8.58599C17.454 8.13214 18.2844 8.13214 18.7966 8.58599C19.3088 9.03984 19.3088 9.77568 18.7966 10.2295C18.2844 10.6834 17.454 10.6834 16.9418 10.2295C16.4296 9.77568 16.4296 9.03984 16.9418 8.58599Z" fill="#1C274C"/>
</g>
<path opacity="0.7" d="M48.4577 33.2265C47.9455 32.7727 47.1151 32.7727 46.6029 33.2265C46.0907 33.6804 46.0907 34.4162 46.6029 34.8701C47.1151 35.3239 47.9455 35.3239 48.4577 34.8701C48.9699 34.4162 48.9699 33.6804 48.4577 33.2265Z" fill="#1C274C"/>
<path opacity="0.2" d="M41.9554 22.0547C42.4676 21.6008 43.2981 21.6008 43.8103 22.0547C44.3225 22.5085 44.3225 23.2443 43.8103 23.6982C43.2981 24.152 42.4676 24.152 41.9554 23.6982C41.4432 23.2443 41.4432 22.5085 41.9554 22.0547Z" fill="#1C274C"/>
<path opacity="0.5" d="M9.81014 34.1505L13.9414 23.1688C15.8145 18.1897 16.751 15.7002 18.967 15.2366C21.183 14.7731 23.2772 16.6287 27.4656 20.3399L35.728 27.661C39.9163 31.3722 42.0105 33.2278 41.4874 35.1914C40.9643 37.1549 38.1546 37.9848 32.5354 39.6445L20.1417 43.3051L20.1417 43.3051C13.3796 45.3023 9.99856 46.3009 8.21383 44.7195C6.42909 43.1381 7.55611 40.1423 9.81014 34.1505Z" fill="#1C274C"/>
<path d="M21.5186 16.2592L21.6424 15.7283C20.6811 15.2286 19.8336 15.0554 18.9674 15.2366C18.6142 15.3105 18.2936 15.4358 17.9964 15.6145L19.6993 15.9263C18.5292 15.7121 18.1316 15.6392 17.9964 15.6145C17.968 15.6316 17.9395 15.6494 17.9115 15.6675L17.8985 15.7243C17.8809 15.8021 17.8553 15.9158 17.8232 16.062C17.759 16.3545 17.6682 16.7775 17.5611 17.3043C17.3469 18.3574 17.0665 19.829 16.8009 21.5057C16.2749 24.8277 15.7876 29.0722 16.0386 32.4639C16.1905 34.5163 16.6724 37.0623 17.1025 39.0516C17.3195 40.0557 17.5273 40.9356 17.6809 41.5649C17.7578 41.8798 17.8212 42.1324 17.8656 42.3071L17.9173 42.5089L17.9312 42.5623L17.9359 42.5804C17.9359 42.5805 17.9363 42.5821 19.7226 42.2139L17.9359 42.5804L18.2708 43.8558C18.8639 43.6826 19.4872 43.4985 20.1421 43.3051L21.7661 42.8254L21.505 41.831L21.4925 41.783L21.4438 41.593C21.4015 41.4264 21.3403 41.1828 21.2659 40.8779C21.1169 40.2676 20.9153 39.4135 20.7048 38.4402C20.28 36.4749 19.8349 34.0928 19.6986 32.2513C19.4735 29.2097 19.9133 25.2406 20.4332 21.9573C20.6907 20.3315 20.963 18.9026 21.1708 17.8807C21.2746 17.3702 21.3622 16.9621 21.4235 16.6829C21.4542 16.5433 21.4783 16.436 21.4945 16.3643L21.5129 16.2839L21.5174 16.2644L21.5186 16.2592Z" fill="#1C274C"/>
<path d="M31.8843 39.8369L28.4047 40.8646L28.1788 40.2623L29.9191 39.7498C28.1788 40.2623 28.1788 40.2625 28.1788 40.2623L28.1765 40.2563L28.1716 40.2432L28.1542 40.196C28.1394 40.1556 28.1181 40.0972 28.0914 40.0226C28.038 39.8734 27.9626 39.659 27.8725 39.3924C27.6927 38.86 27.4529 38.1153 27.2129 37.2634C26.7432 35.5968 26.2313 33.3818 26.2313 31.5362C26.2313 29.6907 26.7432 27.4757 27.2129 25.8091C27.4529 24.9572 27.6927 24.2125 27.8725 23.6801C27.9626 23.4134 28.038 23.199 28.0914 23.0499C28.1181 22.9753 28.1394 22.9169 28.1542 22.8765L28.1716 22.8293L28.1765 22.8162L28.178 22.8123C28.1781 22.8121 28.1788 22.8102 29.9191 23.3227L28.1788 22.8102L28.6964 21.4302L31.5987 24.0018C31.5951 24.0118 31.5913 24.0222 31.5874 24.033C31.5395 24.1669 31.4701 24.3642 31.3863 24.6121C31.2186 25.1086 30.9948 25.8039 30.7714 26.5965C30.3142 28.2189 29.8991 30.1107 29.8991 31.5362C29.8991 32.9618 30.3142 34.8536 30.7714 36.476C30.9948 37.2686 31.2186 37.9639 31.3863 38.4604C31.4701 38.7083 31.5395 38.9056 31.5874 39.0395C31.6114 39.1064 31.63 39.1574 31.6423 39.191L31.6559 39.2279L31.659 39.2361L31.8843 39.8369Z" fill="#1C274C"/>
</svg>
