<svg width="70" height="70" viewBox="0 0 70 70" fill="none" xmlns="http://www.w3.org/2000/svg">
    <path fill-rule="evenodd" clip-rule="evenodd"
        d="M34.9999 8.02081C20.0997 8.02081 8.02075 20.0998 8.02075 35C8.02075 49.9002 20.0997 61.9791 34.9999 61.9791C49.9001 61.9791 61.9791 49.9002 61.9791 35C61.9791 20.0998 49.9001 8.02081 34.9999 8.02081ZM3.64575 35C3.64575 17.6836 17.6835 3.64581 34.9999 3.64581C52.3163 3.64581 66.3541 17.6836 66.3541 35C66.3541 52.3164 52.3163 66.3541 34.9999 66.3541C17.6835 66.3541 3.64575 52.3164 3.64575 35ZM34.9999 22.6041C33.1877 22.6041 31.7187 24.0732 31.7187 25.8854C31.7187 27.0935 30.7393 28.0729 29.5312 28.0729C28.323 28.0729 27.3437 27.0935 27.3437 25.8854C27.3437 21.657 30.7715 18.2291 34.9999 18.2291C39.2283 18.2291 42.6562 21.657 42.6562 25.8854C42.6562 28.6951 41.1414 31.1487 38.8944 32.4781C38.3206 32.8176 37.8469 33.1884 37.5382 33.5521C37.2386 33.9051 37.1874 34.1355 37.1874 34.2708V37.9167C37.1874 39.1248 36.208 40.1042 34.9999 40.1042C33.7918 40.1042 32.8124 39.1248 32.8124 37.9167V34.2708C32.8124 32.7953 33.4584 31.5981 34.2025 30.7213C34.9376 29.855 35.8542 29.1935 36.6667 28.7128C37.6379 28.1382 38.2812 27.0858 38.2812 25.8854C38.2812 24.0732 36.8121 22.6041 34.9999 22.6041ZM34.9999 49.5833C36.6108 49.5833 37.9166 48.2775 37.9166 46.6666C37.9166 45.0558 36.6108 43.75 34.9999 43.75C33.3891 43.75 32.0833 45.0558 32.0833 46.6666C32.0833 48.2775 33.3891 49.5833 34.9999 49.5833Z"
        fill="#3B454B" />
</svg>