<svg width="75" height="75" viewBox="0 0 75 75" fill="none" xmlns="http://www.w3.org/2000/svg">
<path d="M7.7381 37.5C6.91624 37.5 6.25 36.8338 6.25 36.0119C6.25 22.1195 15.7685 10.4503 28.6396 7.17016C28.1642 7.77208 27.723 8.40711 27.3145 9.0611C25.0151 12.7425 23.4168 17.5166 22.2944 22.0986C21.1635 26.7156 20.4756 31.3096 20.0702 34.7342C19.9475 35.7701 19.8503 36.7024 19.7744 37.5H7.7381Z" fill="#1C274C"/>
<path d="M68.75 36.0119C68.75 36.8338 68.0838 37.5 67.2619 37.5H55.2256C55.1497 36.7024 55.0525 35.7701 54.9298 34.7342C54.5244 31.3096 53.8365 26.7156 52.7056 22.0986C51.5832 17.5166 49.9849 12.7425 47.6855 9.0611C47.277 8.40711 46.8358 7.77208 46.3604 7.17015C59.2315 10.4503 68.75 22.1195 68.75 36.0119Z" fill="#1C274C"/>
<path d="M35.1562 62.5V37.5H24.484C24.5496 36.8393 24.6292 36.0956 24.7252 35.2853C25.1175 31.9717 25.7775 27.5812 26.8473 23.2139C27.9257 18.8115 29.3808 14.6013 31.2902 11.5444C33.2164 8.46063 35.2772 7.03125 37.5 7.03125C39.7228 7.03125 41.7836 8.46063 43.7098 11.5444C45.6192 14.6013 47.0743 18.8115 48.1527 23.2139C49.2225 27.5812 49.8825 31.9717 50.2748 35.2853C50.3708 36.0956 50.4504 36.8393 50.516 37.5H39.8438V62.5C39.8438 67.2462 35.9962 71.0938 31.25 71.0938C26.5038 71.0938 22.6562 67.2462 22.6562 62.5V59.375C22.6562 58.0806 23.7056 57.0312 25 57.0312C26.2944 57.0312 27.3438 58.0806 27.3438 59.375V62.5C27.3438 64.6574 29.0926 66.4062 31.25 66.4062C33.4074 66.4062 35.1562 64.6574 35.1562 62.5Z" fill="#1C274C"/>
</svg>
