<svg width="75" height="75" viewBox="0 0 75 75" fill="none" xmlns="http://www.w3.org/2000/svg">
    <path fill-rule="evenodd" clip-rule="evenodd"
        d="M13.2812 27.1093C7.93225 26.0235 3.90625 21.2944 3.90625 15.625C3.90625 9.15291 9.15291 3.90625 15.625 3.90625C21.2944 3.90625 26.0235 7.93225 27.1093 13.2812H47.8907C48.9765 7.93225 53.7056 3.90625 59.375 3.90625C65.8471 3.90625 71.0938 9.15291 71.0938 15.625C71.0938 21.2944 67.0677 26.0235 61.7188 27.1093V47.8907C67.0677 48.9765 71.0938 53.7056 71.0938 59.375C71.0938 65.8471 65.8471 71.0937 59.375 71.0937C53.7056 71.0937 48.9765 67.0677 47.8907 61.7187H27.1093C26.0235 67.0677 21.2944 71.0937 15.625 71.0937C9.15291 71.0937 3.90625 65.8471 3.90625 59.375C3.90625 53.7056 7.93225 48.9765 13.2812 47.8907L13.2812 27.1093ZM8.59375 15.625C8.59375 11.7417 11.7417 8.59375 15.625 8.59375C19.5083 8.59375 22.6562 11.7417 22.6562 15.625C22.6562 19.5083 19.5083 22.6562 15.625 22.6562C11.7417 22.6562 8.59375 19.5083 8.59375 15.625ZM17.9688 47.8907L17.9687 27.1093C22.5605 26.1773 26.1773 22.5605 27.1093 17.9688H47.8907C48.8227 22.5605 52.4395 26.1773 57.0312 27.1093V47.8907C52.4395 48.8227 48.8227 52.4395 47.8907 57.0312H27.1093C26.1773 52.4395 22.5605 48.8227 17.9688 47.8907ZM15.625 52.3437C11.7417 52.3437 8.59375 55.4917 8.59375 59.375C8.59375 63.2583 11.7417 66.4062 15.625 66.4062C19.5083 66.4062 22.6562 63.2583 22.6562 59.375C22.6562 55.4917 19.5083 52.3437 15.625 52.3437ZM66.4062 15.625C66.4062 19.5083 63.2583 22.6562 59.375 22.6562C55.4917 22.6562 52.3438 19.5083 52.3438 15.625C52.3438 11.7417 55.4917 8.59375 59.375 8.59375C63.2583 8.59375 66.4062 11.7417 66.4062 15.625ZM52.3438 59.375C52.3438 55.4917 55.4917 52.3437 59.375 52.3437C63.2583 52.3437 66.4062 55.4917 66.4062 59.375C66.4062 63.2583 63.2583 66.4062 59.375 66.4062C55.4917 66.4062 52.3438 63.2583 52.3438 59.375Z"
        fill="#1C274C" />
</svg>