<svg width="75" height="75" viewBox="0 0 75 75" fill="none" xmlns="http://www.w3.org/2000/svg">
    <path
        d="M37.5005 3.90625C38.7949 3.90625 39.8443 4.95558 39.8443 6.25V9.48897L55.4935 17.3135L55.6623 17.3979C57.9573 18.5452 59.9137 19.5232 61.2751 20.4734C62.6556 21.4369 64.1069 22.8359 64.1069 25C64.1069 27.1641 62.6556 28.5631 61.2751 29.5266C59.9137 30.4768 57.9574 31.4548 55.6623 32.6021L39.8443 40.511V56.25C39.8443 57.5444 38.7949 58.5938 37.5005 58.5938C36.2061 58.5938 35.1568 57.5444 35.1568 56.25V39.1133C35.1561 39.0806 35.1561 39.0479 35.1568 39.0154V10.9847C35.1561 10.9521 35.1561 10.9194 35.1568 10.8867V6.25C35.1568 4.95558 36.2061 3.90625 37.5005 3.90625Z"
        fill="#1C274C" />
    <path
        d="M37.5 68.75C54.7589 68.75 68.75 63.8531 68.75 57.8125C68.75 52.6181 58.4045 48.2695 44.5318 47.153V56.25C44.5318 60.1332 41.3838 63.2812 37.5005 63.2812C33.6173 63.2812 30.4693 60.1332 30.4693 56.25V47.1529C16.596 48.2693 6.25 52.618 6.25 57.8125C6.25 63.8531 20.2411 68.75 37.5 68.75Z"
        fill="#1C274C" />
    <path
        d="M37.5005 3.90625C36.2061 3.90625 35.1568 4.95558 35.1568 6.25V10.8867C35.1561 10.9194 35.1561 10.9521 35.1568 10.9847V39.0154C35.1561 39.0479 35.1561 39.0806 35.1568 39.1133V46.9053V56.25C35.1568 57.5444 36.2061 58.5938 37.5005 58.5938C38.7949 58.5938 39.8443 57.5444 39.8443 56.25V46.9053V40.511L55.6623 32.6021C57.9574 31.4548 59.9137 30.4768 61.2751 29.5266C62.6556 28.5631 64.1069 27.1641 64.1069 25C64.1069 22.8359 62.6556 21.4369 61.2751 20.4734C59.9137 19.5232 57.9574 18.5452 55.6623 17.3979L55.6623 17.3979L39.8443 9.48897V6.25C39.8443 4.95558 38.7949 3.90625 37.5005 3.90625Z"
        fill="#1C274C" />
</svg>