<svg width="56" height="34" viewBox="0 0 56 34" fill="none" xmlns="http://www.w3.org/2000/svg">
    <rect width="56" height="34" />
    <path
        d="M46.6667 15.9375C47.6332 15.9375 48.4167 16.4132 48.4167 17C48.4167 17.5868 47.6332 18.0625 46.6667 18.0625H25.0834V25.5C25.0834 25.9298 24.657 26.3172 24.0031 26.4817C23.3491 26.6461 22.5964 26.5552 22.0959 26.2513L8.09594 17.7513C7.76775 17.5521 7.58337 17.2818 7.58337 17C7.58337 16.7182 7.76775 16.448 8.09594 16.2487L22.0959 7.74873C22.5964 7.44486 23.3491 7.35395 24.0031 7.51841C24.657 7.68286 25.0834 8.07029 25.0834 8.50003L25.0834 15.9375H46.6667Z"
        fill="#171717" />
</svg>