<svg width="40" height="40" viewBox="0 0 40 40" fill="none" xmlns="http://www.w3.org/2000/svg">
    <path
        d="M34.9029 13.648C35.8698 14.6034 36.2857 15.8064 36.4801 17.2352C36.6674 18.6113 36.6674 20.3611 36.6673 22.5319V22.7061C36.6674 24.8769 36.6674 26.6266 36.4801 28.0027C36.2857 29.4315 35.8698 30.6345 34.9029 31.5899C33.936 32.5453 32.7186 32.9563 31.2726 33.1484C29.8799 33.3334 28.1092 33.3334 25.9123 33.3333H17.704C15.5071 33.3334 13.7363 33.3334 12.3436 33.1484C10.8977 32.9563 9.68026 32.5453 8.71335 31.5899C8.12674 31.0103 7.74291 30.3395 7.48833 29.5825C8.94076 29.7623 10.7376 29.7622 12.8138 29.7621H21.163C23.299 29.7622 25.1395 29.7623 26.6134 29.5665C28.1929 29.3567 29.707 28.8835 30.9351 27.67C32.1632 26.4565 32.6421 24.9604 32.8544 23.3996C33.0526 21.9433 33.0525 20.1247 33.0523 18.014V17.7005C33.0525 15.6485 33.0526 13.8726 32.8705 12.4372C33.637 12.6888 34.3161 13.0681 34.9029 13.648Z"
        fill="#15803D" />
    <path
        d="M16.9884 15.0794C15.4358 15.0794 14.1772 16.3231 14.1772 17.8572C14.1772 19.3914 15.4358 20.635 16.9884 20.635C18.5409 20.635 19.7996 19.3914 19.7996 17.8572C19.7996 16.3231 18.5409 15.0794 16.9884 15.0794Z"
        fill="#15803D" />
    <path fill-rule="evenodd" clip-rule="evenodd"
        d="M4.74549 9.72807C3.33398 11.1228 3.33398 13.3676 3.33398 17.8572C3.33398 22.3468 3.33398 24.5916 4.74549 25.9864C6.157 27.3811 8.42879 27.3811 12.9724 27.3811H21.0044C25.5479 27.3811 27.8197 27.3811 29.2312 25.9864C30.6427 24.5916 30.6427 22.3468 30.6427 17.8572C30.6427 13.3676 30.6427 11.1228 29.2312 9.72807C27.8197 8.33333 25.5479 8.33333 21.0044 8.33333H12.9724C8.42879 8.33333 6.157 8.33333 4.74549 9.72807ZM11.7676 17.8572C11.7676 15.0081 14.105 12.6984 16.9884 12.6984C19.8717 12.6984 22.2092 15.0081 22.2092 17.8572C22.2092 20.7063 19.8717 23.016 16.9884 23.016C14.105 23.016 11.7676 20.7063 11.7676 17.8572ZM25.8236 22.2223C25.1582 22.2223 24.6188 21.6893 24.6188 21.0318V14.6826C24.6188 14.0251 25.1582 13.4921 25.8236 13.4921C26.4889 13.4921 27.0283 14.0251 27.0283 14.6826V21.0318C27.0283 21.6893 26.4889 22.2223 25.8236 22.2223ZM6.94838 21.0318C6.94838 21.6893 7.48779 22.2223 8.15318 22.2223C8.81857 22.2223 9.35798 21.6893 9.35798 21.0318L9.35798 14.6826C9.35798 14.0251 8.81857 13.4921 8.15318 13.4921C7.48779 13.4921 6.94838 14.0251 6.94838 14.6826L6.94838 21.0318Z"
        fill="#15803D" />
</svg>