<svg width="29" height="34" viewBox="0 0 29 34" fill="none" xmlns="http://www.w3.org/2000/svg">
    <path
        d="M8.01854 11.8212C8.45607 11.5363 9.00779 11.7211 9.25086 12.234L8.45866 12.75C9.25086 12.234 9.25065 12.2336 9.25086 12.234L9.25174 12.2359L9.25267 12.2379L9.25469 12.2422L9.25933 12.2523L9.27097 12.2783C9.27974 12.2982 9.29046 12.3233 9.30284 12.3538C9.32759 12.4148 9.35894 12.4969 9.39449 12.6011C9.46562 12.8096 9.55332 13.1056 9.63859 13.4955C9.80929 14.276 9.96907 15.4274 9.96907 17C9.96907 18.5727 9.80929 19.724 9.63859 20.5045C9.55332 20.8944 9.46562 21.1904 9.39449 21.3989C9.35894 21.5031 9.32759 21.5853 9.30284 21.6462C9.29046 21.6767 9.27974 21.7019 9.27097 21.7218L9.25933 21.7478L9.25469 21.7579L9.25267 21.7622L9.25174 21.7642C9.25152 21.7646 9.25086 21.766 8.45866 21.25L9.25086 21.766C9.00779 22.279 8.45607 22.4638 8.01854 22.1788C7.58474 21.8963 7.42608 21.2579 7.66035 20.7471L7.6664 20.7326C7.67468 20.7122 7.69053 20.6715 7.71163 20.6097C7.75378 20.4862 7.81712 20.2775 7.88289 19.9767C8.01428 19.376 8.15658 18.4024 8.15658 17C8.15658 15.5977 8.01428 14.624 7.88289 14.0233C7.81712 13.7226 7.75378 13.5139 7.71163 13.3903C7.69053 13.3285 7.67468 13.2878 7.6664 13.2674L7.66035 13.2529C7.42608 12.7421 7.58474 12.1038 8.01854 11.8212Z"
        fill="#1C274C" />
    <path fill-rule="evenodd" clip-rule="evenodd"
        d="M12.0155 4.60419H13.9643C16.1849 4.60417 17.9438 4.60415 19.3204 4.82113C20.7371 5.04444 21.8837 5.51493 22.788 6.57512C23.6923 7.6353 24.0936 8.97964 24.284 10.6406C24.4691 12.2544 24.4691 14.3166 24.4691 16.92V17.0799C24.4691 19.6834 24.4691 21.7456 24.284 23.3595C24.0936 25.0204 23.6923 26.3647 22.788 27.4249C21.8837 28.4851 20.7371 28.9556 19.3204 29.1789C17.9439 29.3959 16.185 29.3959 13.9644 29.3959H12.0155C9.79489 29.3959 8.03596 29.3959 6.65942 29.1789C5.24275 28.9556 4.0961 28.4851 3.19183 27.4249C2.28756 26.3647 1.88625 25.0204 1.69578 23.3595C1.51071 21.7456 1.51072 19.6834 1.51074 17.08V16.9201C1.51072 14.3166 1.51071 12.2545 1.69578 10.6406C1.88625 8.97964 2.28756 7.6353 3.19183 6.57512C4.0961 5.51493 5.24275 5.04444 6.65942 4.82113C8.03597 4.60415 9.79487 4.60417 12.0155 4.60419ZM6.90094 6.92718C5.68524 7.11881 4.98484 7.47817 4.47346 8.07772C3.96208 8.67726 3.65556 9.49843 3.49212 10.9237C3.32517 12.3796 3.32324 14.2987 3.32324 17C3.32324 19.7014 3.32517 21.6205 3.49212 23.0763C3.65556 24.5016 3.96208 25.3228 4.47346 25.9223C4.98484 26.5219 5.68524 26.8812 6.90093 27.0729C8.1427 27.2686 9.77958 27.2709 12.0837 27.2709H13.8962C16.2002 27.2709 17.8371 27.2686 19.0789 27.0729C20.2946 26.8812 20.995 26.5219 21.5064 25.9223C22.0177 25.3228 22.3243 24.5016 22.4877 23.0763C22.6546 21.6205 22.6566 19.7014 22.6566 17C22.6566 14.2987 22.6546 12.3796 22.4877 10.9237C22.3243 9.49843 22.0177 8.67726 21.5064 8.07772C20.995 7.47817 20.2946 7.11881 19.0789 6.92718C17.8371 6.73144 16.2002 6.72919 13.8962 6.72919H12.0837C9.77958 6.72919 8.1427 6.73144 6.90094 6.92718Z"
        fill="#1C274C" />
    <path
        d="M25.6774 19.8334C25.6774 20.4202 26.0831 20.8959 26.5837 20.8959C27.0842 20.8959 27.4899 20.4202 27.4899 19.8334L27.4899 14.1667C27.4899 13.5799 27.0842 13.1042 26.5837 13.1042C26.0831 13.1042 25.6774 13.5799 25.6774 14.1667L25.6774 19.8334Z"
        fill="#1C274C" />
</svg>