<svg width="75" height="83" viewBox="0 0 75 83" fill="none" xmlns="http://www.w3.org/2000/svg">
<g filter="url(#filter0_d_3468_11720)">
<path fill-rule="evenodd" clip-rule="evenodd" d="M35.9375 10.25C22.9933 10.25 12.5 20.9874 12.5 34.2326C12.5 41.3337 15.5188 47.7162 20.3081 52.1043C21.9044 53.5669 23.0869 54.6505 23.925 55.4367C24.3441 55.8298 24.6644 56.1369 24.9009 56.3726C25.0188 56.4901 25.1089 56.5831 25.1761 56.6551C25.2093 56.6908 25.2343 56.7185 25.2525 56.7393C25.2703 56.7596 25.2787 56.7701 25.2787 56.7701C26.0178 57.7035 26.1778 57.9442 26.2731 58.1624C26.3684 58.3805 26.4369 58.6631 26.6234 59.8491C26.697 60.3173 26.7045 61.1193 26.7045 63.3023L26.7045 63.396C26.7045 64.6745 26.7045 65.7772 26.7846 66.6821C26.8694 67.6391 27.057 68.5866 27.5609 69.4797C28.1219 70.474 28.9289 71.2996 29.9006 71.8737C30.7733 72.3893 31.6993 72.5814 32.6345 72.6681C33.5189 72.7501 34.5965 72.75 35.8459 72.75H36.0291C37.2785 72.75 38.3561 72.7501 39.2405 72.6681C40.1757 72.5814 41.1017 72.3893 41.9744 71.8737C42.9461 71.2996 43.7531 70.474 44.3141 69.4797C44.818 68.5866 45.0056 67.6391 45.0904 66.6821C45.1705 65.7772 45.1705 64.6744 45.1705 63.3959V63.3023C45.1705 61.1193 45.178 60.3173 45.2516 59.8491C45.4381 58.6631 45.5066 58.3805 45.6019 58.1624C45.6972 57.9442 45.8572 57.7035 46.5963 56.7701C46.5963 56.7701 46.5993 56.7663 46.6063 56.758C46.6063 56.758 46.6157 56.7471 46.6225 56.7393C46.6407 56.7185 46.6657 56.6908 46.6989 56.6551C46.7661 56.5831 46.8562 56.4901 46.9741 56.3726C47.2106 56.1369 47.5309 55.8298 47.95 55.4367C48.7881 54.6505 49.9706 53.5669 51.5669 52.1043C56.3562 47.7162 59.375 41.3337 59.375 34.2326C59.375 20.9874 48.8817 10.25 35.9375 10.25ZM40.8464 66.2885C40.8675 66.0503 40.8815 65.7855 40.8908 65.4826H30.9842C30.9935 65.7855 31.0075 66.0503 31.0286 66.2885C31.0865 66.943 31.1843 67.1806 31.2514 67.2994C31.4384 67.6309 31.7073 67.9061 32.0313 68.0974C32.1473 68.166 32.3795 68.2661 33.0192 68.3254C33.6881 68.3874 34.5707 68.3895 35.9375 68.3895C37.3043 68.3895 38.1869 68.3874 38.8558 68.3254C39.4955 68.2661 39.7277 68.166 39.8438 68.0974C40.1677 67.9061 40.4366 67.6309 40.6236 67.2994C40.6907 67.1806 40.7885 66.943 40.8464 66.2885Z" fill="#7A82BC"/>
<path fill-rule="evenodd" clip-rule="evenodd" d="M28.9805 45.7212C30.1009 45.0731 31.5347 45.456 32.1828 46.5764C32.8618 47.7501 34.125 48.5313 35.5679 48.5313C37.0108 48.5313 38.2741 47.7501 38.953 46.5764C39.6011 45.456 41.0349 45.0731 42.1553 45.7212C43.2758 46.3694 43.6587 47.8031 43.0105 48.9236C41.9065 50.832 40.0848 52.2801 37.9116 52.8951V57.125C37.9116 58.4194 36.8623 59.4688 35.5679 59.4688C34.2734 59.4688 33.2241 58.4194 33.2241 57.125V52.8951C31.0509 52.2801 29.2292 50.832 28.1253 48.9236C27.4771 47.8031 27.86 46.3694 28.9805 45.7212Z" fill="white"/>
</g>
<defs>
<filter id="filter0_d_3468_11720" x="-10" y="-6" width="95" height="95" filterUnits="userSpaceOnUse" color-interpolation-filters="sRGB">
<feFlood flood-opacity="0" result="BackgroundImageFix"/>
<feColorMatrix in="SourceAlpha" type="matrix" values="0 0 0 0 0 0 0 0 0 0 0 0 0 0 0 0 0 0 127 0" result="hardAlpha"/>
<feOffset/>
<feGaussianBlur stdDeviation="5"/>
<feColorMatrix type="matrix" values="0 0 0 0 0 0 0 0 0 0 0 0 0 0 0 0 0 0 1 0"/>
<feBlend mode="normal" in2="BackgroundImageFix" result="effect1_dropShadow_3468_11720"/>
<feBlend mode="normal" in="SourceGraphic" in2="effect1_dropShadow_3468_11720" result="shape"/>
</filter>
</defs>
</svg>
