<svg width="75" height="75" viewBox="0 0 75 75" fill="none" xmlns="http://www.w3.org/2000/svg">
<path d="M17.7173 30.9824L27.2865 18.0354C33.472 9.66648 36.5647 5.48203 39.4502 6.36629C42.3357 7.25056 42.3357 12.3828 42.3357 22.6472V23.6151C42.3357 27.3172 42.3357 29.1683 43.5187 30.3294L43.5812 30.3896C44.7897 31.5261 46.7163 31.5261 50.5695 31.5261C57.5035 31.5261 60.9705 31.5261 62.1422 33.6291C62.1616 33.6639 62.1805 33.699 62.1988 33.7344C63.3049 35.8699 61.2975 38.5858 57.2826 44.0178L47.7134 56.9646C41.5278 65.3335 38.435 69.518 35.5495 68.6337C32.664 67.7494 32.6641 62.6171 32.6642 52.3526L32.6642 51.3852C32.6643 47.6829 32.6643 45.8318 31.4814 44.6707L31.4188 44.6106C30.2103 43.474 28.2837 43.474 24.4305 43.474C17.4965 43.474 14.0295 43.474 12.8578 41.371C12.8384 41.3362 12.8195 41.3011 12.8012 41.2658C11.6951 39.1303 13.7025 36.4143 17.7173 30.9824Z" fill="#1C274C"/>
</svg>
