<svg width="70" height="70" viewBox="0 0 70 70" fill="none" xmlns="http://www.w3.org/2000/svg">
<path d="M29.1673 52.0139C29.1673 58.7257 23.944 64.1667 17.5007 64.1667C11.0573 64.1667 5.83398 58.7257 5.83398 52.0139C5.83398 47.8144 10.4013 42.2094 13.8205 38.6017C15.8446 36.466 19.1567 36.466 21.1808 38.6017C24.6 42.2094 29.1673 47.8144 29.1673 52.0139Z" fill="#06B6D4"/>
<path d="M64.1673 52.0139C64.1673 58.7257 58.944 64.1667 52.5006 64.1667C46.0573 64.1667 40.834 58.7257 40.834 52.0139C40.834 47.8144 45.4013 42.2094 48.8205 38.6017C50.8446 36.466 54.1567 36.466 56.1808 38.6017C59.6 42.2094 64.1673 47.8144 64.1673 52.0139Z" fill="#06B6D4"/>
<path d="M46.6673 22.8472C46.6673 29.559 41.444 35 35.0006 35C28.5573 35 23.334 29.559 23.334 22.8472C23.334 18.6477 27.9013 13.0427 31.3205 9.43506C33.3446 7.29934 36.6567 7.29934 38.6808 9.43506C42.1 13.0427 46.6673 18.6477 46.6673 22.8472Z" fill="#06B6D4"/>
</svg>
