<svg width="50" height="50" viewBox="0 0 50 50" fill="none" xmlns="http://www.w3.org/2000/svg">
    <path fill-rule="evenodd" clip-rule="evenodd"
        d="M38.541 29.1667C34.5139 29.1667 31.2493 32.2049 31.2493 35.9528C31.2493 39.6712 33.5766 44.0104 37.2076 45.5621C38.0541 45.9238 39.028 45.9238 39.8744 45.5621C43.5054 44.0104 45.8327 39.6712 45.8327 35.9528C45.8327 32.2049 42.5681 29.1667 38.541 29.1667ZM38.541 38.5417C39.6916 38.5417 40.6243 37.6089 40.6243 36.4584C40.6243 35.3078 39.6916 34.375 38.541 34.375C37.3904 34.375 36.4577 35.3078 36.4577 36.4584C36.4577 37.6089 37.3904 38.5417 38.541 38.5417Z"
        fill="#1C274C" />
    <path fill-rule="evenodd" clip-rule="evenodd"
        d="M11.4577 4.16669C7.43061 4.16669 4.16602 7.20492 4.16602 10.9528C4.16602 14.6712 6.49326 19.0104 10.1243 20.5621C10.9707 20.9238 11.9446 20.9238 12.7911 20.5621C16.4221 19.0104 18.7493 14.6712 18.7493 10.9528C18.7493 7.20492 15.4848 4.16669 11.4577 4.16669ZM11.4577 13.5417C12.6083 13.5417 13.541 12.6089 13.541 11.4584C13.541 10.3078 12.6083 9.37502 11.4577 9.37502C10.3071 9.37502 9.37435 10.3078 9.37435 11.4584C9.37435 12.6089 10.3071 13.5417 11.4577 13.5417Z"
        fill="#1C274C" />
    <path fill-rule="evenodd" clip-rule="evenodd"
        d="M23.4374 10.4167C23.4374 9.55374 24.1369 8.85419 24.9999 8.85419H33.608C39.3397 8.85419 41.5195 16.3396 36.6838 19.4168L14.9937 33.2196C12.7957 34.6184 13.7865 38.0209 16.3918 38.0209H21.2277L20.77 37.5632C20.1598 36.953 20.1598 35.9637 20.77 35.3535C21.3802 34.7433 22.3695 34.7433 22.9797 35.3535L26.1047 38.4785C26.7149 39.0887 26.7149 40.078 26.1047 40.6882L22.9797 43.8132C22.3695 44.4234 21.3802 44.4234 20.77 43.8132C20.1598 43.203 20.1598 42.2137 20.77 41.6035L21.2277 41.1459H16.3918C10.66 41.1459 8.48033 33.6604 13.316 30.5832L35.0061 16.7804C37.2041 15.3816 36.2133 11.9792 33.608 11.9792H24.9999C24.1369 11.9792 23.4374 11.2796 23.4374 10.4167Z"
        fill="#1C274C" />
</svg>