<svg width="50" height="50" viewBox="0 0 50 50" fill="none" xmlns="http://www.w3.org/2000/svg">
    <path
        d="M38.8237 32.6462L42.3996 21.9184C45.5235 12.5467 47.0854 7.8609 44.6119 5.38742C42.1385 2.91395 37.4527 4.47589 28.081 7.59976L17.3532 11.1757C9.78942 13.697 6.00751 14.9576 4.9328 16.8062C3.91042 18.5649 3.91042 20.7369 4.9328 22.4955C6.00751 24.3441 9.78942 25.6048 17.3532 28.1261C18.2906 28.4385 19.3452 28.2154 20.0471 27.52L31.5172 16.1562C32.1625 15.5169 33.2039 15.5217 33.8432 16.167C34.4825 16.8123 34.4777 17.8537 33.8324 18.493L22.5475 29.6733C21.7738 30.4398 21.5289 31.613 21.8733 32.6461C24.3946 40.2099 25.6552 43.9919 27.5039 45.0666C29.2625 46.089 31.4345 46.089 33.1931 45.0666C35.0418 43.9919 36.3024 40.2099 38.8237 32.6462Z"
        fill="#fcfcfc" />
</svg>