<svg width="100" height="100" viewBox="0 0 100 100" fill="none" xmlns="http://www.w3.org/2000/svg">
    <path opacity="0.5"
        d="M72.9173 68.75C72.9173 81.4065 62.6572 91.6667 50.0007 91.6667C37.3441 91.6667 27.084 81.4065 27.084 68.75C27.084 61.5151 30.4367 55.0632 35.6732 50.8633C36.7717 49.9822 37.5007 48.6903 37.5007 47.2821V20.8333C37.5007 13.9298 43.0971 8.33333 50.0007 8.33333C56.9042 8.33333 62.5006 13.9298 62.5006 20.8333V47.2821C62.5006 48.6903 63.2296 49.9822 64.3281 50.8633C69.5646 55.0632 72.9173 61.5151 72.9173 68.75Z"
        fill="#FF0000" fill-opacity="0.58" />
    <path
        d="M53.1257 20.8333C53.1257 19.1074 51.7265 17.7083 50.0007 17.7083C48.2748 17.7083 46.8757 19.1074 46.8757 20.8333V55.7515C46.8757 57.5718 45.6371 59.1149 44.1338 60.1414C41.387 62.017 39.584 65.1729 39.584 68.75C39.584 74.503 44.2477 79.1667 50.0007 79.1667C55.7536 79.1667 60.4173 74.503 60.4173 68.75C60.4173 65.1729 58.6143 62.017 55.8675 60.1414C54.3643 59.1149 53.1257 57.5718 53.1257 55.7515V20.8333Z"
        fill="#FF0000" fill-opacity="0.58" />
</svg>