<svg width="70" height="70" viewBox="0 0 70 70" fill="none" xmlns="http://www.w3.org/2000/svg">
<path fill-rule="evenodd" clip-rule="evenodd" d="M51.0423 48.125C51.0423 56.9846 43.8602 64.1667 35.0007 64.1667C26.1411 64.1667 18.959 56.9846 18.959 48.125C18.959 43.0605 21.3059 38.5442 24.9714 35.6043C25.7404 34.9875 26.2507 34.0832 26.2507 33.0974V14.5833C26.2507 9.75085 30.1682 5.83334 35.0007 5.83334C39.8331 5.83334 43.7507 9.75084 43.7507 14.5833V33.0974C43.7507 34.0832 44.2609 34.9875 45.0299 35.6043C48.6954 38.5442 51.0423 43.0605 51.0423 48.125ZM35.0007 12.3958C36.2088 12.3958 37.1882 13.3752 37.1882 14.5833V39.0261C37.1882 40.3002 38.0552 41.3805 39.1074 42.099C41.0302 43.4119 42.2923 45.621 42.2923 48.125C42.2923 52.1521 39.0277 55.4167 35.0007 55.4167C30.9736 55.4167 27.709 52.1521 27.709 48.125C27.709 45.621 28.9711 43.4119 30.8939 42.099C31.9461 41.3805 32.8132 40.3002 32.8132 39.0261V14.5833C32.8132 13.3752 33.7925 12.3958 35.0007 12.3958Z" fill="#C2410C"/>
</svg>
