<svg width="75" height="75" viewBox="0 0 75 75" fill="none" xmlns="http://www.w3.org/2000/svg">
    <path fill-rule="evenodd" clip-rule="evenodd"
        d="M13.2812 59.375C13.2812 58.0806 14.3306 57.0312 15.625 57.0312H59.375C60.6694 57.0312 61.7188 58.0806 61.7188 59.375C61.7188 60.6694 60.6694 61.7188 59.375 61.7188H15.625C14.3306 61.7188 13.2812 60.6694 13.2812 59.375ZM22.6562 68.75C22.6562 67.4556 23.7056 66.4062 25 66.4062H50C51.2944 66.4062 52.3438 67.4556 52.3438 68.75C52.3438 70.0444 51.2944 71.0938 50 71.0938H25C23.7056 71.0938 22.6562 70.0444 22.6562 68.75Z"
        fill="#1C274C" />
    <path
        d="M19.0084 47.6562C17.3503 44.6432 16.4062 41.1805 16.4062 37.5C16.4062 25.8502 25.8502 16.4062 37.5 16.4062C49.1498 16.4062 58.5938 25.8502 58.5938 37.5C58.5938 41.1805 57.6497 44.6432 55.9916 47.6562H68.75C70.0444 47.6562 71.0938 48.7056 71.0938 50C71.0938 51.2944 70.0444 52.3438 68.75 52.3438H6.25C4.95558 52.3438 3.90625 51.2944 3.90625 50C3.90625 48.7056 4.95558 47.6562 6.25 47.6562H19.0084Z"
        fill="#1C274C" />
    <path fill-rule="evenodd" clip-rule="evenodd"
        d="M37.5 3.90625C38.7944 3.90625 39.8438 4.95558 39.8438 6.25V9.375C39.8438 10.6694 38.7944 11.7188 37.5 11.7188C36.2056 11.7188 35.1562 10.6694 35.1562 9.375V6.25C35.1562 4.95558 36.2056 3.90625 37.5 3.90625ZM13.7457 13.7457C14.6609 12.8304 16.1449 12.8304 17.0602 13.7457L18.2878 14.9733C19.2031 15.8886 19.2031 17.3725 18.2878 18.2878C17.3725 19.2031 15.8886 19.2031 14.9733 18.2878L13.7457 17.0602C12.8304 16.1449 12.8304 14.6609 13.7457 13.7457ZM61.2535 13.7465C62.1688 14.6618 62.1688 16.1457 61.2535 17.061L60.0259 18.2886C59.1106 19.2039 57.6266 19.2039 56.7114 18.2886C55.7961 17.3734 55.7961 15.8894 56.7114 14.9741L57.939 13.7465C58.8543 12.8312 60.3382 12.8312 61.2535 13.7465ZM3.90625 37.5C3.90625 36.2056 4.95558 35.1562 6.25 35.1562H9.375C10.6694 35.1562 11.7188 36.2056 11.7188 37.5C11.7188 38.7944 10.6694 39.8438 9.375 39.8438H6.25C4.95558 39.8438 3.90625 38.7944 3.90625 37.5ZM63.2812 37.5C63.2812 36.2056 64.3306 35.1562 65.625 35.1562H68.75C70.0444 35.1562 71.0938 36.2056 71.0938 37.5C71.0938 38.7944 70.0444 39.8438 68.75 39.8438H65.625C64.3306 39.8438 63.2812 38.7944 63.2812 37.5Z"
        fill="#1C274C" />
</svg>