<svg width="70" height="70" viewBox="0 0 70 70" fill="none" xmlns="http://www.w3.org/2000/svg">
<path fill-rule="evenodd" clip-rule="evenodd" d="M18.2298 16.0417C18.2298 10.8065 22.4738 6.5625 27.709 6.5625C32.9442 6.5625 37.1881 10.8065 37.1881 16.0417C37.1881 21.2769 32.9442 25.5208 27.709 25.5208H8.75065C7.54253 25.5208 6.56315 24.5415 6.56315 23.3333C6.56315 22.1252 7.54253 21.1458 8.75065 21.1458H27.709C30.5279 21.1458 32.8131 18.8606 32.8131 16.0417C32.8131 13.2227 30.5279 10.9375 27.709 10.9375C24.89 10.9375 22.6048 13.2227 22.6048 16.0417V17.0833C22.6048 18.2915 21.6254 19.2708 20.4173 19.2708C19.2092 19.2708 18.2298 18.2915 18.2298 17.0833V16.0417ZM41.5631 21.875C41.5631 15.029 47.113 9.47917 53.959 9.47917C60.805 9.47917 66.3548 15.029 66.3548 21.875C66.3548 28.721 60.805 34.2708 53.959 34.2708H5.83398C4.62586 34.2708 3.64648 33.2915 3.64648 32.0833C3.64648 30.8752 4.62586 29.8958 5.83398 29.8958H53.959C58.3888 29.8958 61.9798 26.3048 61.9798 21.875C61.9798 17.4452 58.3888 13.8542 53.959 13.8542C49.5292 13.8542 45.9381 17.4452 45.9381 21.875V23.3333C45.9381 24.5415 44.9588 25.5208 43.7506 25.5208C42.5425 25.5208 41.5631 24.5415 41.5631 23.3333V21.875ZM9.47982 40.8333C9.47982 39.6252 10.4592 38.6458 11.6673 38.6458H53.959C60.805 38.6458 66.3548 44.1956 66.3548 51.0417C66.3548 57.8877 60.805 63.4375 53.959 63.4375C47.113 63.4375 41.5631 57.8877 41.5631 51.0417V49.5833C41.5631 48.3752 42.5425 47.3958 43.7506 47.3958C44.9588 47.3958 45.9381 48.3752 45.9381 49.5833V51.0417C45.9381 55.4715 49.5292 59.0625 53.959 59.0625C58.3888 59.0625 61.9798 55.4715 61.9798 51.0417C61.9798 46.6119 58.3888 43.0208 53.959 43.0208H11.6673C10.4592 43.0208 9.47982 42.0415 9.47982 40.8333Z" fill="#A3A3A3"/>
</svg>
